0
SECTION
2
HEADER
9
$ACADVER
1
AC1009
9
$DWGCODEPAGE
3
ANSI_1251
0
ENDSEC
0
SECTION
2
TABLES
0
TABLE
2
LTYPE
70
3
0
LTYPE
2
CONTINUOUS
70
0
3
Solid line
72
65
73
0
40
0
0
LTYPE
2
DASHED
70
0
3
__ __ __
72
65
73
2
40
300
49
200
49
-100
0
LTYPE
2
CENTER
70
0
3
____ _ ____
72
65
73
4
40
700
49
400
49
-100
49
100
49
-100
0
ENDTAB
0
TABLE
2
LAYER
70
7
0
LAYER
2
CONTOUR
70
0
62
7
6
CONTINUOUS
0
LAYER
2
THIN
70
0
62
8
6
CONTINUOUS
0
LAYER
2
WATER
70
0
62
5
6
DASHED
0
LAYER
2
DIM
70
0
62
3
6
CONTINUOUS
0
LAYER
2
TEXT
70
0
62
7
6
CONTINUOUS
0
LAYER
2
AXIS
70
0
62
1
6
CENTER
0
LAYER
2
FLOW
70
0
62
4
6
CONTINUOUS
0
ENDTAB
0
ENDSEC
0
SECTION
2
ENTITIES
0
TEXT
8
TEXT
10
0
20
6700
30
0
40
300
1
SUVSANOAT - ГАБАРИТЫ ПОДОБРАННОГО ОБОРУДОВАНИЯ (вид сбоку, мм, 1:1)
50
0
72
0
11
0
21
6700
31
0
0
TEXT
8
TEXT
10
0
20
6200
30
0
40
150
1
Молокозавод / молочный цех. Q = 1000 м3/сут. Схемы автоматические, не рабочие чертежи. 03.09.2026
50
0
72
0
11
0
21
6200
31
0
0
LINE
8
CONTOUR
10
864
20
800
30
0
11
11436
21
800
31
0
0
LINE
8
CONTOUR
10
864
20
3200
30
0
11
11436
21
3200
31
0
0
POLYLINE
8
CONTOUR
66
1
70
0
10
0
20
0
30
0
0
VERTEX
8
CONTOUR
10
864
20
800
30
0
0
VERTEX
8
CONTOUR
10
805.25
20
830.09
30
0
0
VERTEX
8
CONTOUR
10
749.45
20
918.84
30
0
0
VERTEX
8
CONTOUR
10
699.4
20
1061.8
30
0
0
VERTEX
8
CONTOUR
10
657.6
20
1251.81
30
0
0
VERTEX
8
CONTOUR
10
626.14
20
1479.34
30
0
0
VERTEX
8
CONTOUR
10
606.62
20
1732.97
30
0
0
VERTEX
8
CONTOUR
10
600
20
2000
30
0
0
VERTEX
8
CONTOUR
10
606.62
20
2267.03
30
0
0
VERTEX
8
CONTOUR
10
626.14
20
2520.66
30
0
0
VERTEX
8
CONTOUR
10
657.6
20
2748.19
30
0
0
VERTEX
8
CONTOUR
10
699.4
20
2938.2
30
0
0
VERTEX
8
CONTOUR
10
749.45
20
3081.16
30
0
0
VERTEX
8
CONTOUR
10
805.25
20
3169.91
30
0
0
VERTEX
8
CONTOUR
10
864
20
3200
30
0
0
SEQEND
8
CONTOUR
0
POLYLINE
8
CONTOUR
66
1
70
0
10
0
20
0
30
0
0
VERTEX
8
CONTOUR
10
11436
20
800
30
0
0
VERTEX
8
CONTOUR
10
11494.75
20
830.09
30
0
0
VERTEX
8
CONTOUR
10
11550.55
20
918.84
30
0
0
VERTEX
8
CONTOUR
10
11600.6
20
1061.8
30
0
0
VERTEX
8
CONTOUR
10
11642.4
20
1251.81
30
0
0
VERTEX
8
CONTOUR
10
11673.86
20
1479.34
30
0
0
VERTEX
8
CONTOUR
10
11693.38
20
1732.97
30
0
0
VERTEX
8
CONTOUR
10
11700
20
2000
30
0
0
VERTEX
8
CONTOUR
10
11693.38
20
2267.03
30
0
0
VERTEX
8
CONTOUR
10
11673.86
20
2520.66
30
0
0
VERTEX
8
CONTOUR
10
11642.4
20
2748.19
30
0
0
VERTEX
8
CONTOUR
10
11600.6
20
2938.2
30
0
0
VERTEX
8
CONTOUR
10
11550.55
20
3081.16
30
0
0
VERTEX
8
CONTOUR
10
11494.75
20
3169.91
30
0
0
VERTEX
8
CONTOUR
10
11436
20
3200
30
0
0
SEQEND
8
CONTOUR
0
LINE
8
THIN
10
864
20
800
30
0
11
864
21
3200
31
0
0
LINE
8
THIN
10
11436
20
800
30
0
11
11436
21
3200
31
0
0
LINE
8
THIN
10
1392.86
20
770
30
0
11
1392.86
21
3230
31
0
0
LINE
8
THIN
10
2185.71
20
770
30
0
11
2185.71
21
3230
31
0
0
LINE
8
THIN
10
2978.57
20
770
30
0
11
2978.57
21
3230
31
0
0
LINE
8
THIN
10
3771.43
20
770
30
0
11
3771.43
21
3230
31
0
0
LINE
8
THIN
10
4564.29
20
770
30
0
11
4564.29
21
3230
31
0
0
LINE
8
THIN
10
5357.14
20
770
30
0
11
5357.14
21
3230
31
0
0
LINE
8
THIN
10
6150
20
770
30
0
11
6150
21
3230
31
0
0
LINE
8
THIN
10
6942.86
20
770
30
0
11
6942.86
21
3230
31
0
0
LINE
8
THIN
10
7735.71
20
770
30
0
11
7735.71
21
3230
31
0
0
LINE
8
THIN
10
8528.57
20
770
30
0
11
8528.57
21
3230
31
0
0
LINE
8
THIN
10
9321.43
20
770
30
0
11
9321.43
21
3230
31
0
0
LINE
8
THIN
10
10114.29
20
770
30
0
11
10114.29
21
3230
31
0
0
LINE
8
THIN
10
10907.14
20
770
30
0
11
10907.14
21
3230
31
0
0
LINE
8
THIN
10
2520
20
3200
30
0
11
2520
21
3560
31
0
0
LINE
8
THIN
10
3120
20
3200
30
0
11
3120
21
3560
31
0
0
LINE
8
THIN
10
2400
20
3560
30
0
11
3240
21
3560
31
0
0
LINE
8
THIN
10
2400
20
3650
30
0
11
3240
21
3650
31
0
0
LINE
8
THIN
10
5850
20
3200
30
0
11
5850
21
3560
31
0
0
LINE
8
THIN
10
6450
20
3200
30
0
11
6450
21
3560
31
0
0
LINE
8
THIN
10
5730
20
3560
30
0
11
6570
21
3560
31
0
0
LINE
8
THIN
10
5730
20
3650
30
0
11
6570
21
3650
31
0
0
LINE
8
WATER
10
864
20
2600
30
0
11
11436
21
2600
31
0
0
POLYLINE
8
WATER
66
1
70
1
10
0
20
0
30
0
0
VERTEX
8
WATER
10
6075
20
2705
30
0
0
VERTEX
8
WATER
10
6225
20
2705
30
0
0
VERTEX
8
WATER
10
6150
20
2600
30
0
0
SEQEND
8
WATER
0
LINE
8
WATER
10
6045
20
2600
30
0
11
6255
21
2600
31
0
0
LINE
8
WATER
10
6090
20
2567
30
0
11
6210
21
2567
31
0
0
LINE
8
WATER
10
6120
20
2534
30
0
11
6180
21
2534
31
0
0
LINE
8
CONTOUR
10
600
20
2685.5
30
0
11
200
21
2685.5
31
0
0
LINE
8
CONTOUR
10
600
20
2370.5
30
0
11
200
21
2370.5
31
0
0
LINE
8
CONTOUR
10
200
20
2370.5
30
0
11
200
21
2685.5
31
0
0
LINE
8
AXIS
10
600
20
2528
30
0
11
360
21
2528
31
0
0
TEXT
8
TEXT
10
140
20
2725.5
30
0
40
120
1
DN315
50
0
72
2
11
140
21
2725.5
31
0
0
LINE
8
CONTOUR
10
11700
20
2541.5
30
0
11
12100
21
2541.5
31
0
0
LINE
8
CONTOUR
10
11700
20
2226.5
30
0
11
12100
21
2226.5
31
0
0
LINE
8
CONTOUR
10
12100
20
2226.5
30
0
11
12100
21
2541.5
31
0
0
LINE
8
AXIS
10
11700
20
2384
30
0
11
11940
21
2384
31
0
0
TEXT
8
TEXT
10
12160
20
2581.5
30
0
40
120
1
DN315
50
0
72
0
11
12160
21
2581.5
31
0
0
LINE
8
DIM
10
600
20
195
30
0
11
600
21
405
31
0
0
LINE
8
DIM
10
11700
20
195
30
0
11
11700
21
405
31
0
0
LINE
8
DIM
10
600
20
300
30
0
11
11700
21
300
31
0
0
LINE
8
DIM
10
540
20
240
30
0
11
660
21
360
31
0
0
LINE
8
DIM
10
11640
20
240
30
0
11
11760
21
360
31
0
0
TEXT
8
DIM
10
6150
20
352.5
30
0
40
150
1
11100
50
0
72
1
11
6150
21
352.5
31
0
0
LINE
8
DIM
10
12295
20
800
30
0
11
12505
21
800
31
0
0
LINE
8
DIM
10
12295
20
3200
30
0
11
12505
21
3200
31
0
0
LINE
8
DIM
10
12400
20
800
30
0
11
12400
21
3200
31
0
0
LINE
8
DIM
10
12340
20
740
30
0
11
12460
21
860
31
0
0
LINE
8
DIM
10
12340
20
3140
30
0
11
12460
21
3260
31
0
0
TEXT
8
DIM
10
12347.5
20
2000
30
0
40
150
1
%%c2400
50
90
72
1
11
12347.5
21
2000
31
0
0
TEXT
8
TEXT
10
600
20
4100
30
0
40
195
1
02 Усреднитель - РЕЗ-500  x 10 корп.
50
0
72
0
11
600
21
4100
31
0
0
TEXT
8
TEXT
10
600
20
3900
30
0
40
120
1
V = 502.3 м3, DN315, 20 люка, масса 16950 кг
50
0
72
0
11
600
21
3900
31
0
0
LINE
8
CONTOUR
10
13900
20
3450
30
0
11
22550
21
3450
31
0
0
LINE
8
THIN
10
14000
20
3450
30
0
11
13850
21
3330
31
0
0
LINE
8
THIN
10
14300
20
3450
30
0
11
14150
21
3330
31
0
0
LINE
8
THIN
10
14600
20
3450
30
0
11
14450
21
3330
31
0
0
LINE
8
THIN
10
14900
20
3450
30
0
11
14750
21
3330
31
0
0
LINE
8
THIN
10
15200
20
3450
30
0
11
15050
21
3330
31
0
0
LINE
8
THIN
10
15500
20
3450
30
0
11
15350
21
3330
31
0
0
LINE
8
THIN
10
15800
20
3450
30
0
11
15650
21
3330
31
0
0
LINE
8
THIN
10
16100
20
3450
30
0
11
15950
21
3330
31
0
0
LINE
8
THIN
10
16400
20
3450
30
0
11
16250
21
3330
31
0
0
LINE
8
THIN
10
16700
20
3450
30
0
11
16550
21
3330
31
0
0
LINE
8
THIN
10
17000
20
3450
30
0
11
16850
21
3330
31
0
0
LINE
8
THIN
10
17300
20
3450
30
0
11
17150
21
3330
31
0
0
LINE
8
THIN
10
17600
20
3450
30
0
11
17450
21
3330
31
0
0
LINE
8
THIN
10
17900
20
3450
30
0
11
17750
21
3330
31
0
0
LINE
8
THIN
10
18200
20
3450
30
0
11
18050
21
3330
31
0
0
LINE
8
THIN
10
18500
20
3450
30
0
11
18350
21
3330
31
0
0
LINE
8
THIN
10
18800
20
3450
30
0
11
18650
21
3330
31
0
0
LINE
8
THIN
10
19100
20
3450
30
0
11
18950
21
3330
31
0
0
LINE
8
THIN
10
19400
20
3450
30
0
11
19250
21
3330
31
0
0
LINE
8
THIN
10
19700
20
3450
30
0
11
19550
21
3330
31
0
0
LINE
8
THIN
10
20000
20
3450
30
0
11
19850
21
3330
31
0
0
LINE
8
THIN
10
20300
20
3450
30
0
11
20150
21
3330
31
0
0
LINE
8
THIN
10
20600
20
3450
30
0
11
20450
21
3330
31
0
0
LINE
8
THIN
10
20900
20
3450
30
0
11
20750
21
3330
31
0
0
LINE
8
THIN
10
21200
20
3450
30
0
11
21050
21
3330
31
0
0
LINE
8
THIN
10
21500
20
3450
30
0
11
21350
21
3330
31
0
0
LINE
8
THIN
10
21800
20
3450
30
0
11
21650
21
3330
31
0
0
LINE
8
THIN
10
22100
20
3450
30
0
11
21950
21
3330
31
0
0
LINE
8
THIN
10
22400
20
3450
30
0
11
22250
21
3330
31
0
0
POLYLINE
8
CONTOUR
66
1
70
1
10
0
20
0
30
0
0
VERTEX
8
CONTOUR
10
14700
20
800
30
0
0
VERTEX
8
CONTOUR
10
21750
20
800
30
0
0
VERTEX
8
CONTOUR
10
21750
20
3000
30
0
0
VERTEX
8
CONTOUR
10
14700
20
3000
30
0
0
SEQEND
8
CONTOUR
0
LINE
8
WATER
10
14730
20
2700.71
30
0
11
21720
21
2700.71
31
0
0
POLYLINE
8
WATER
66
1
70
1
10
0
20
0
30
0
0
VERTEX
8
WATER
10
15612
20
2805.71
30
0
0
VERTEX
8
WATER
10
15762
20
2805.71
30
0
0
VERTEX
8
WATER
10
15687
20
2700.71
30
0
0
SEQEND
8
WATER
0
LINE
8
WATER
10
15582
20
2700.71
30
0
11
15792
21
2700.71
31
0
0
LINE
8
WATER
10
15627
20
2667.71
30
0
11
15747
21
2667.71
31
0
0
LINE
8
WATER
10
15657
20
2634.71
30
0
11
15717
21
2634.71
31
0
0
LINE
8
CONTOUR
10
16815
20
850
30
0
11
16815
21
2692
31
0
0
LINE
8
CONTOUR
10
20199
20
1460
30
0
11
20199
21
2950
31
0
0
LINE
8
THIN
10
15810
20
3000
30
0
11
15810
21
3360
31
0
0
LINE
8
THIN
10
16410
20
3000
30
0
11
16410
21
3360
31
0
0
LINE
8
THIN
10
15690
20
3360
30
0
11
16530
21
3360
31
0
0
LINE
8
THIN
10
15690
20
3450
30
0
11
16530
21
3450
31
0
0
LINE
8
THIN
10
17220
20
3000
30
0
11
17220
21
3360
31
0
0
LINE
8
THIN
10
17820
20
3000
30
0
11
17820
21
3360
31
0
0
LINE
8
THIN
10
17100
20
3360
30
0
11
17940
21
3360
31
0
0
LINE
8
THIN
10
17100
20
3450
30
0
11
17940
21
3450
31
0
0
LINE
8
THIN
10
18630
20
3000
30
0
11
18630
21
3360
31
0
0
LINE
8
THIN
10
19230
20
3000
30
0
11
19230
21
3360
31
0
0
LINE
8
THIN
10
18510
20
3360
30
0
11
19350
21
3360
31
0
0
LINE
8
THIN
10
18510
20
3450
30
0
11
19350
21
3450
31
0
0
LINE
8
THIN
10
20040
20
3000
30
0
11
20040
21
3360
31
0
0
LINE
8
THIN
10
20640
20
3000
30
0
11
20640
21
3360
31
0
0
LINE
8
THIN
10
19920
20
3360
30
0
11
20760
21
3360
31
0
0
LINE
8
THIN
10
19920
20
3450
30
0
11
20760
21
3450
31
0
0
LINE
8
CONTOUR
10
14700
20
2693.5
30
0
11
14300
21
2693.5
31
0
0
LINE
8
CONTOUR
10
14700
20
2338.5
30
0
11
14300
21
2338.5
31
0
0
LINE
8
CONTOUR
10
14300
20
2338.5
30
0
11
14300
21
2693.5
31
0
0
LINE
8
AXIS
10
14700
20
2516
30
0
11
14460
21
2516
31
0
0
TEXT
8
TEXT
10
14240
20
2733.5
30
0
40
120
1
DN355
50
0
72
2
11
14240
21
2733.5
31
0
0
LINE
8
CONTOUR
10
21750
20
2517.5
30
0
11
22150
21
2517.5
31
0
0
LINE
8
CONTOUR
10
21750
20
2162.5
30
0
11
22150
21
2162.5
31
0
0
LINE
8
CONTOUR
10
22150
20
2162.5
30
0
11
22150
21
2517.5
31
0
0
LINE
8
AXIS
10
21750
20
2340
30
0
11
21990
21
2340
31
0
0
TEXT
8
TEXT
10
22210
20
2557.5
30
0
40
120
1
DN355
50
0
72
0
11
22210
21
2557.5
31
0
0
LINE
8
DIM
10
14700
20
195
30
0
11
14700
21
405
31
0
0
LINE
8
DIM
10
21750
20
195
30
0
11
21750
21
405
31
0
0
LINE
8
DIM
10
14700
20
300
30
0
11
21750
21
300
31
0
0
LINE
8
DIM
10
14640
20
240
30
0
11
14760
21
360
31
0
0
LINE
8
DIM
10
21690
20
240
30
0
11
21810
21
360
31
0
0
TEXT
8
DIM
10
18225
20
352.5
30
0
40
150
1
7050
50
0
72
1
11
18225
21
352.5
31
0
0
LINE
8
DIM
10
22345
20
800
30
0
11
22555
21
800
31
0
0
LINE
8
DIM
10
22345
20
3000
30
0
11
22555
21
3000
31
0
0
LINE
8
DIM
10
22450
20
800
30
0
11
22450
21
3000
31
0
0
LINE
8
DIM
10
22390
20
740
30
0
11
22510
21
860
31
0
0
LINE
8
DIM
10
22390
20
2940
30
0
11
22510
21
3060
31
0
0
TEXT
8
DIM
10
22397.5
20
1900
30
0
40
150
1
2200
50
90
72
1
11
22397.5
21
1900
31
0
0
TEXT
8
TEXT
10
14700
20
4100
30
0
40
195
1
03 Жироуловитель - ЖИР-50  x 2 корп.
50
0
72
0
11
14700
21
4100
31
0
0
TEXT
8
TEXT
10
14700
20
3900
30
0
40
120
1
7050 x 2500 x 2200 мм, V = 77.55 м3, DN355, 8 люка, масса 3155 кг
50
0
72
0
11
14700
21
3900
31
0
0
LINE
8
CONTOUR
10
25014
20
800
30
0
11
36136
21
800
31
0
0
LINE
8
CONTOUR
10
25014
20
3200
30
0
11
36136
21
3200
31
0
0
POLYLINE
8
CONTOUR
66
1
70
0
10
0
20
0
30
0
0
VERTEX
8
CONTOUR
10
25014
20
800
30
0
0
VERTEX
8
CONTOUR
10
24955.25
20
830.09
30
0
0
VERTEX
8
CONTOUR
10
24899.45
20
918.84
30
0
0
VERTEX
8
CONTOUR
10
24849.4
20
1061.8
30
0
0
VERTEX
8
CONTOUR
10
24807.6
20
1251.81
30
0
0
VERTEX
8
CONTOUR
10
24776.14
20
1479.34
30
0
0
VERTEX
8
CONTOUR
10
24756.62
20
1732.97
30
0
0
VERTEX
8
CONTOUR
10
24750
20
2000
30
0
0
VERTEX
8
CONTOUR
10
24756.62
20
2267.03
30
0
0
VERTEX
8
CONTOUR
10
24776.14
20
2520.66
30
0
0
VERTEX
8
CONTOUR
10
24807.6
20
2748.19
30
0
0
VERTEX
8
CONTOUR
10
24849.4
20
2938.2
30
0
0
VERTEX
8
CONTOUR
10
24899.45
20
3081.16
30
0
0
VERTEX
8
CONTOUR
10
24955.25
20
3169.91
30
0
0
VERTEX
8
CONTOUR
10
25014
20
3200
30
0
0
SEQEND
8
CONTOUR
0
POLYLINE
8
CONTOUR
66
1
70
0
10
0
20
0
30
0
0
VERTEX
8
CONTOUR
10
36136
20
800
30
0
0
VERTEX
8
CONTOUR
10
36194.75
20
830.09
30
0
0
VERTEX
8
CONTOUR
10
36250.55
20
918.84
30
0
0
VERTEX
8
CONTOUR
10
36300.6
20
1061.8
30
0
0
VERTEX
8
CONTOUR
10
36342.4
20
1251.81
30
0
0
VERTEX
8
CONTOUR
10
36373.86
20
1479.34
30
0
0
VERTEX
8
CONTOUR
10
36393.38
20
1732.97
30
0
0
VERTEX
8
CONTOUR
10
36400
20
2000
30
0
0
VERTEX
8
CONTOUR
10
36393.38
20
2267.03
30
0
0
VERTEX
8
CONTOUR
10
36373.86
20
2520.66
30
0
0
VERTEX
8
CONTOUR
10
36342.4
20
2748.19
30
0
0
VERTEX
8
CONTOUR
10
36300.6
20
2938.2
30
0
0
VERTEX
8
CONTOUR
10
36250.55
20
3081.16
30
0
0
VERTEX
8
CONTOUR
10
36194.75
20
3169.91
30
0
0
VERTEX
8
CONTOUR
10
36136
20
3200
30
0
0
SEQEND
8
CONTOUR
0
LINE
8
THIN
10
25014
20
800
30
0
11
25014
21
3200
31
0
0
LINE
8
THIN
10
36136
20
800
30
0
11
36136
21
3200
31
0
0
LINE
8
THIN
10
26780
20
3200
30
0
11
26780
21
3560
31
0
0
LINE
8
THIN
10
27380
20
3200
30
0
11
27380
21
3560
31
0
0
LINE
8
THIN
10
26660
20
3560
30
0
11
27500
21
3560
31
0
0
LINE
8
THIN
10
26660
20
3650
30
0
11
27500
21
3650
31
0
0
LINE
8
THIN
10
30275
20
3200
30
0
11
30275
21
3560
31
0
0
LINE
8
THIN
10
30875
20
3200
30
0
11
30875
21
3560
31
0
0
LINE
8
THIN
10
30155
20
3560
30
0
11
30995
21
3560
31
0
0
LINE
8
THIN
10
30155
20
3650
30
0
11
30995
21
3650
31
0
0
LINE
8
WATER
10
25014
20
2600
30
0
11
36136
21
2600
31
0
0
POLYLINE
8
WATER
66
1
70
1
10
0
20
0
30
0
0
VERTEX
8
WATER
10
30500
20
2705
30
0
0
VERTEX
8
WATER
10
30650
20
2705
30
0
0
VERTEX
8
WATER
10
30575
20
2600
30
0
0
SEQEND
8
WATER
0
LINE
8
WATER
10
30470
20
2600
30
0
11
30680
21
2600
31
0
0
LINE
8
WATER
10
30515
20
2567
30
0
11
30635
21
2567
31
0
0
LINE
8
WATER
10
30545
20
2534
30
0
11
30605
21
2534
31
0
0
LINE
8
CONTOUR
10
24750
20
2685.5
30
0
11
24350
21
2685.5
31
0
0
LINE
8
CONTOUR
10
24750
20
2370.5
30
0
11
24350
21
2370.5
31
0
0
LINE
8
CONTOUR
10
24350
20
2370.5
30
0
11
24350
21
2685.5
31
0
0
LINE
8
AXIS
10
24750
20
2528
30
0
11
24510
21
2528
31
0
0
TEXT
8
TEXT
10
24290
20
2725.5
30
0
40
120
1
DN315
50
0
72
2
11
24290
21
2725.5
31
0
0
LINE
8
CONTOUR
10
36400
20
2541.5
30
0
11
36800
21
2541.5
31
0
0
LINE
8
CONTOUR
10
36400
20
2226.5
30
0
11
36800
21
2226.5
31
0
0
LINE
8
CONTOUR
10
36800
20
2226.5
30
0
11
36800
21
2541.5
31
0
0
LINE
8
AXIS
10
36400
20
2384
30
0
11
36640
21
2384
31
0
0
TEXT
8
TEXT
10
36860
20
2581.5
30
0
40
120
1
DN315
50
0
72
0
11
36860
21
2581.5
31
0
0
LINE
8
DIM
10
24750
20
195
30
0
11
24750
21
405
31
0
0
LINE
8
DIM
10
36400
20
195
30
0
11
36400
21
405
31
0
0
LINE
8
DIM
10
24750
20
300
30
0
11
36400
21
300
31
0
0
LINE
8
DIM
10
24690
20
240
30
0
11
24810
21
360
31
0
0
LINE
8
DIM
10
36340
20
240
30
0
11
36460
21
360
31
0
0
TEXT
8
DIM
10
30575
20
352.5
30
0
40
150
1
11650
50
0
72
1
11
30575
21
352.5
31
0
0
LINE
8
DIM
10
36995
20
800
30
0
11
37205
21
800
31
0
0
LINE
8
DIM
10
36995
20
3200
30
0
11
37205
21
3200
31
0
0
LINE
8
DIM
10
37100
20
800
30
0
11
37100
21
3200
31
0
0
LINE
8
DIM
10
37040
20
740
30
0
11
37160
21
860
31
0
0
LINE
8
DIM
10
37040
20
3140
30
0
11
37160
21
3260
31
0
0
TEXT
8
DIM
10
37047.5
20
2000
30
0
40
150
1
%%c2400
50
90
72
1
11
37047.5
21
2000
31
0
0
TEXT
8
TEXT
10
24750
20
4100
30
0
40
195
1
05 Биологическая очистка - 8 x БИО-500  x 14 корп.
50
0
72
0
11
24750
21
4100
31
0
0
TEXT
8
TEXT
10
24750
20
3900
30
0
40
120
1
V = 737.5 м3, DN315, 28 люка, масса 23800 кг
50
0
72
0
11
24750
21
3900
31
0
0
LINE
8
CONTOUR
10
500
20
-6100
30
0
11
2400
21
-6100
31
0
0
POLYLINE
8
THIN
66
1
70
1
10
0
20
0
30
0
0
VERTEX
8
THIN
10
600
20
-6100
30
0
0
VERTEX
8
THIN
10
2300
20
-6100
30
0
0
VERTEX
8
THIN
10
2300
20
-4200
30
0
0
VERTEX
8
THIN
10
600
20
-4200
30
0
0
SEQEND
8
THIN
0
POLYLINE
8
CONTOUR
66
1
70
1
10
0
20
0
30
0
0
VERTEX
8
CONTOUR
10
634
20
-6100
30
0
0
VERTEX
8
CONTOUR
10
1042
20
-6100
30
0
0
VERTEX
8
CONTOUR
10
1042
20
-4770
30
0
0
VERTEX
8
CONTOUR
10
634
20
-4770
30
0
0
SEQEND
8
CONTOUR
0
POLYLINE
8
CONTOUR
66
1
70
1
10
0
20
0
30
0
0
VERTEX
8
CONTOUR
10
1144
20
-6100
30
0
0
VERTEX
8
CONTOUR
10
1620
20
-6100
30
0
0
VERTEX
8
CONTOUR
10
1620
20
-4276
30
0
0
VERTEX
8
CONTOUR
10
1144
20
-4276
30
0
0
SEQEND
8
CONTOUR
0
CIRCLE
8
DIM
10
1382
20
-4808
30
0
40
85
0
POLYLINE
8
CONTOUR
66
1
70
1
10
0
20
0
30
0
0
VERTEX
8
CONTOUR
10
1722
20
-6100
30
0
0
VERTEX
8
CONTOUR
10
2266
20
-6100
30
0
0
VERTEX
8
CONTOUR
10
2266
20
-4504
30
0
0
VERTEX
8
CONTOUR
10
1722
20
-4504
30
0
0
SEQEND
8
CONTOUR
0
LINE
8
WATER
10
1752
20
-4846
30
0
11
2236
21
-4846
31
0
0
POLYLINE
8
WATER
66
1
70
1
10
0
20
0
30
0
0
VERTEX
8
WATER
10
1919
20
-4741
30
0
0
VERTEX
8
WATER
10
2069
20
-4741
30
0
0
VERTEX
8
WATER
10
1994
20
-4846
30
0
0
SEQEND
8
WATER
0
LINE
8
WATER
10
1889
20
-4846
30
0
11
2099
21
-4846
31
0
0
LINE
8
WATER
10
1934
20
-4879
30
0
11
2054
21
-4879
31
0
0
LINE
8
WATER
10
1964
20
-4912
30
0
11
2024
21
-4912
31
0
0
LINE
8
FLOW
10
1042
20
-5150
30
0
11
1144
21
-5150
31
0
0
LINE
8
FLOW
10
1620
20
-4960
30
0
11
1722
21
-4960
31
0
0
LINE
8
THIN
10
1994
20
-4504
30
0
11
1994
21
-3950
31
0
0
TEXT
8
TEXT
10
2054
20
-3950
30
0
40
120
1
H2
50
0
72
0
11
2054
21
-3950
31
0
0
LINE
8
CONTOUR
10
2300
20
-5745.5
30
0
11
2700
21
-5745.5
31
0
0
LINE
8
CONTOUR
10
2300
20
-5770.5
30
0
11
2700
21
-5770.5
31
0
0
LINE
8
CONTOUR
10
2700
20
-5770.5
30
0
11
2700
21
-5745.5
31
0
0
LINE
8
AXIS
10
2300
20
-5758
30
0
11
2540
21
-5758
31
0
0
TEXT
8
TEXT
10
2760
20
-5705.5
30
0
40
120
1
DN25
50
0
72
0
11
2760
21
-5705.5
31
0
0
TEXT
8
TEXT
10
838
20
-5435
30
0
40
90
1
соль
50
0
72
1
11
838
21
-5435
31
0
0
TEXT
8
TEXT
10
1382
20
-5530
30
0
40
90
1
шкаф
50
0
72
1
11
1382
21
-5530
31
0
0
TEXT
8
TEXT
10
1994
20
-5530
30
0
40
90
1
раствор
50
0
72
1
11
1994
21
-5530
31
0
0
LINE
8
DIM
10
500
20
-6705
30
0
11
500
21
-6495
31
0
0
LINE
8
DIM
10
2400
20
-6705
30
0
11
2400
21
-6495
31
0
0
LINE
8
DIM
10
500
20
-6600
30
0
11
2400
21
-6600
31
0
0
LINE
8
DIM
10
440
20
-6660
30
0
11
560
21
-6540
31
0
0
LINE
8
DIM
10
2340
20
-6660
30
0
11
2460
21
-6540
31
0
0
TEXT
8
DIM
10
1450
20
-6547.5
30
0
40
150
1
1900
50
0
72
1
11
1450
21
-6547.5
31
0
0
LINE
8
DIM
10
2995
20
-6100
30
0
11
3205
21
-6100
31
0
0
LINE
8
DIM
10
2995
20
-4200
30
0
11
3205
21
-4200
31
0
0
LINE
8
DIM
10
3100
20
-6100
30
0
11
3100
21
-4200
31
0
0
LINE
8
DIM
10
3040
20
-6160
30
0
11
3160
21
-6040
31
0
0
LINE
8
DIM
10
3040
20
-4260
30
0
11
3160
21
-4140
31
0
0
TEXT
8
DIM
10
3047.5
20
-5150
30
0
40
150
1
1900
50
90
72
1
11
3047.5
21
-5150
31
0
0
TEXT
8
TEXT
10
600
20
-3500
30
0
40
195
1
08 Обеззараживание - ЭЛХ-500
50
0
72
0
11
600
21
-3500
31
0
0
TEXT
8
TEXT
10
600
20
-3700
30
0
40
120
1
500 г/ч акт. хлора, соль 38.4 кг/сут
50
0
72
0
11
600
21
-3700
31
0
0
LINE
8
CONTOUR
10
5764
20
-5700
30
0
11
11886
21
-5700
31
0
0
LINE
8
CONTOUR
10
5764
20
-3300
30
0
11
11886
21
-3300
31
0
0
POLYLINE
8
CONTOUR
66
1
70
0
10
0
20
0
30
0
0
VERTEX
8
CONTOUR
10
5764
20
-5700
30
0
0
VERTEX
8
CONTOUR
10
5705.25
20
-5669.91
30
0
0
VERTEX
8
CONTOUR
10
5649.45
20
-5581.16
30
0
0
VERTEX
8
CONTOUR
10
5599.4
20
-5438.2
30
0
0
VERTEX
8
CONTOUR
10
5557.6
20
-5248.19
30
0
0
VERTEX
8
CONTOUR
10
5526.14
20
-5020.66
30
0
0
VERTEX
8
CONTOUR
10
5506.62
20
-4767.03
30
0
0
VERTEX
8
CONTOUR
10
5500
20
-4500
30
0
0
VERTEX
8
CONTOUR
10
5506.62
20
-4232.97
30
0
0
VERTEX
8
CONTOUR
10
5526.14
20
-3979.34
30
0
0
VERTEX
8
CONTOUR
10
5557.6
20
-3751.81
30
0
0
VERTEX
8
CONTOUR
10
5599.4
20
-3561.8
30
0
0
VERTEX
8
CONTOUR
10
5649.45
20
-3418.84
30
0
0
VERTEX
8
CONTOUR
10
5705.25
20
-3330.09
30
0
0
VERTEX
8
CONTOUR
10
5764
20
-3300
30
0
0
SEQEND
8
CONTOUR
0
POLYLINE
8
CONTOUR
66
1
70
0
10
0
20
0
30
0
0
VERTEX
8
CONTOUR
10
11886
20
-5700
30
0
0
VERTEX
8
CONTOUR
10
11944.75
20
-5669.91
30
0
0
VERTEX
8
CONTOUR
10
12000.55
20
-5581.16
30
0
0
VERTEX
8
CONTOUR
10
12050.6
20
-5438.2
30
0
0
VERTEX
8
CONTOUR
10
12092.4
20
-5248.19
30
0
0
VERTEX
8
CONTOUR
10
12123.86
20
-5020.66
30
0
0
VERTEX
8
CONTOUR
10
12143.38
20
-4767.03
30
0
0
VERTEX
8
CONTOUR
10
12150
20
-4500
30
0
0
VERTEX
8
CONTOUR
10
12143.38
20
-4232.97
30
0
0
VERTEX
8
CONTOUR
10
12123.86
20
-3979.34
30
0
0
VERTEX
8
CONTOUR
10
12092.4
20
-3751.81
30
0
0
VERTEX
8
CONTOUR
10
12050.6
20
-3561.8
30
0
0
VERTEX
8
CONTOUR
10
12000.55
20
-3418.84
30
0
0
VERTEX
8
CONTOUR
10
11944.75
20
-3330.09
30
0
0
VERTEX
8
CONTOUR
10
11886
20
-3300
30
0
0
SEQEND
8
CONTOUR
0
LINE
8
THIN
10
5764
20
-5700
30
0
11
5764
21
-3300
31
0
0
LINE
8
THIN
10
11886
20
-5700
30
0
11
11886
21
-3300
31
0
0
LINE
8
THIN
10
6238.89
20
-5730
30
0
11
6238.89
21
-3270
31
0
0
LINE
8
THIN
10
6977.78
20
-5730
30
0
11
6977.78
21
-3270
31
0
0
LINE
8
THIN
10
7716.67
20
-5730
30
0
11
7716.67
21
-3270
31
0
0
LINE
8
THIN
10
8455.56
20
-5730
30
0
11
8455.56
21
-3270
31
0
0
LINE
8
THIN
10
9194.44
20
-5730
30
0
11
9194.44
21
-3270
31
0
0
LINE
8
THIN
10
9933.33
20
-5730
30
0
11
9933.33
21
-3270
31
0
0
LINE
8
THIN
10
10672.22
20
-5730
30
0
11
10672.22
21
-3270
31
0
0
LINE
8
THIN
10
11411.11
20
-5730
30
0
11
11411.11
21
-3270
31
0
0
LINE
8
THIN
10
6530
20
-3300
30
0
11
6530
21
-2940
31
0
0
LINE
8
THIN
10
7130
20
-3300
30
0
11
7130
21
-2940
31
0
0
LINE
8
THIN
10
6410
20
-2940
30
0
11
7250
21
-2940
31
0
0
LINE
8
THIN
10
6410
20
-2850
30
0
11
7250
21
-2850
31
0
0
LINE
8
THIN
10
8525
20
-3300
30
0
11
8525
21
-2940
31
0
0
LINE
8
THIN
10
9125
20
-3300
30
0
11
9125
21
-2940
31
0
0
LINE
8
THIN
10
8405
20
-2940
30
0
11
9245
21
-2940
31
0
0
LINE
8
THIN
10
8405
20
-2850
30
0
11
9245
21
-2850
31
0
0
LINE
8
THIN
10
10520
20
-3300
30
0
11
10520
21
-2940
31
0
0
LINE
8
THIN
10
11120
20
-3300
30
0
11
11120
21
-2940
31
0
0
LINE
8
THIN
10
10400
20
-2940
30
0
11
11240
21
-2940
31
0
0
LINE
8
THIN
10
10400
20
-2850
30
0
11
11240
21
-2850
31
0
0
LINE
8
WATER
10
5764
20
-3900
30
0
11
11886
21
-3900
31
0
0
POLYLINE
8
WATER
66
1
70
1
10
0
20
0
30
0
0
VERTEX
8
WATER
10
8750
20
-3795
30
0
0
VERTEX
8
WATER
10
8900
20
-3795
30
0
0
VERTEX
8
WATER
10
8825
20
-3900
30
0
0
SEQEND
8
WATER
0
LINE
8
WATER
10
8720
20
-3900
30
0
11
8930
21
-3900
31
0
0
LINE
8
WATER
10
8765
20
-3933
30
0
11
8885
21
-3933
31
0
0
LINE
8
WATER
10
8795
20
-3966
30
0
11
8855
21
-3966
31
0
0
LINE
8
CONTOUR
10
5500
20
-3847
30
0
11
5100
21
-3847
31
0
0
LINE
8
CONTOUR
10
5500
20
-4097
30
0
11
5100
21
-4097
31
0
0
LINE
8
CONTOUR
10
5100
20
-4097
30
0
11
5100
21
-3847
31
0
0
LINE
8
AXIS
10
5500
20
-3972
30
0
11
5260
21
-3972
31
0
0
TEXT
8
TEXT
10
5040
20
-3807
30
0
40
120
1
DN250
50
0
72
2
11
5040
21
-3807
31
0
0
LINE
8
CONTOUR
10
12150
20
-3991
30
0
11
12550
21
-3991
31
0
0
LINE
8
CONTOUR
10
12150
20
-4241
30
0
11
12550
21
-4241
31
0
0
LINE
8
CONTOUR
10
12550
20
-4241
30
0
11
12550
21
-3991
31
0
0
LINE
8
AXIS
10
12150
20
-4116
30
0
11
12390
21
-4116
31
0
0
TEXT
8
TEXT
10
12610
20
-3951
30
0
40
120
1
DN250
50
0
72
0
11
12610
21
-3951
31
0
0
LINE
8
DIM
10
5500
20
-6305
30
0
11
5500
21
-6095
31
0
0
LINE
8
DIM
10
12150
20
-6305
30
0
11
12150
21
-6095
31
0
0
LINE
8
DIM
10
5500
20
-6200
30
0
11
12150
21
-6200
31
0
0
LINE
8
DIM
10
5440
20
-6260
30
0
11
5560
21
-6140
31
0
0
LINE
8
DIM
10
12090
20
-6260
30
0
11
12210
21
-6140
31
0
0
TEXT
8
DIM
10
8825
20
-6147.5
30
0
40
150
1
6650
50
0
72
1
11
8825
21
-6147.5
31
0
0
LINE
8
DIM
10
12745
20
-5700
30
0
11
12955
21
-5700
31
0
0
LINE
8
DIM
10
12745
20
-3300
30
0
11
12955
21
-3300
31
0
0
LINE
8
DIM
10
12850
20
-5700
30
0
11
12850
21
-3300
31
0
0
LINE
8
DIM
10
12790
20
-5760
30
0
11
12910
21
-5640
31
0
0
LINE
8
DIM
10
12790
20
-3360
30
0
11
12910
21
-3240
31
0
0
TEXT
8
DIM
10
12797.5
20
-4500
30
0
40
150
1
%%c2400
50
90
72
1
11
12797.5
21
-4500
31
0
0
TEXT
8
TEXT
10
5500
20
-2400
30
0
40
195
1
09 Обработка осадка - РЕЗ-30
50
0
72
0
11
5500
21
-2400
31
0
0
TEXT
8
TEXT
10
5500
20
-2600
30
0
40
120
1
V = 30.08 м3, DN250, 3 люка, масса 1075 кг
50
0
72
0
11
5500
21
-2600
31
0
0
ENDSEC
0
EOF
