0
SECTION
2
HEADER
9
$ACADVER
1
AC1009
9
$DWGCODEPAGE
3
ANSI_1251
0
ENDSEC
0
SECTION
2
TABLES
0
TABLE
2
LTYPE
70
3
0
LTYPE
2
CONTINUOUS
70
0
3
Solid line
72
65
73
0
40
0
0
LTYPE
2
DASHED
70
0
3
__ __ __
72
65
73
2
40
300
49
200
49
-100
0
LTYPE
2
CENTER
70
0
3
____ _ ____
72
65
73
4
40
700
49
400
49
-100
49
100
49
-100
0
ENDTAB
0
TABLE
2
LAYER
70
7
0
LAYER
2
CONTOUR
70
0
62
7
6
CONTINUOUS
0
LAYER
2
THIN
70
0
62
8
6
CONTINUOUS
0
LAYER
2
WATER
70
0
62
5
6
DASHED
0
LAYER
2
DIM
70
0
62
3
6
CONTINUOUS
0
LAYER
2
TEXT
70
0
62
7
6
CONTINUOUS
0
LAYER
2
AXIS
70
0
62
1
6
CENTER
0
LAYER
2
FLOW
70
0
62
4
6
CONTINUOUS
0
ENDTAB
0
ENDSEC
0
SECTION
2
ENTITIES
0
POLYLINE
8
THIN
66
1
70
1
10
0
20
0
30
0
0
VERTEX
8
THIN
10
0
20
0
30
0
0
VERTEX
8
THIN
10
420
20
0
30
0
0
VERTEX
8
THIN
10
420
20
297
30
0
0
VERTEX
8
THIN
10
0
20
297
30
0
0
SEQEND
8
THIN
0
POLYLINE
8
CONTOUR
66
1
70
1
10
0
20
0
30
0
0
VERTEX
8
CONTOUR
10
20
20
5
30
0
0
VERTEX
8
CONTOUR
10
415
20
5
30
0
0
VERTEX
8
CONTOUR
10
415
20
292
30
0
0
VERTEX
8
CONTOUR
10
20
20
292
30
0
0
SEQEND
8
CONTOUR
0
TEXT
8
TEXT
10
25
20
282
30
0
40
5
1
ПРЕДВАРИТЕЛЬНАЯ ТЕХНОЛОГИЧЕСКАЯ СХЕМА ОЧИСТКИ
50
0
72
0
11
25
21
282
31
0
0
TEXT
8
TEXT
10
25
20
274
30
0
40
3
1
Молокозавод / молочный цех - Молочный завод, Самарканд
50
0
72
0
11
25
21
274
31
0
0
TEXT
8
TEXT
10
25
20
269
30
0
40
2.5
1
Q = 1000 м3/сут, режим 24 ч/сут, 41,7 м3/ч. Состав по справочным данным отрасли.
50
0
72
0
11
25
21
269
31
0
0
POLYLINE
8
CONTOUR
66
1
70
1
10
0
20
0
30
0
0
VERTEX
8
CONTOUR
10
20
20
196
30
0
0
VERTEX
8
CONTOUR
10
92
20
196
30
0
0
VERTEX
8
CONTOUR
10
92
20
258
30
0
0
VERTEX
8
CONTOUR
10
20
20
258
30
0
0
SEQEND
8
CONTOUR
0
LINE
8
THIN
10
20
20
251
30
0
11
92
21
251
31
0
0
TEXT
8
TEXT
10
22
20
252.8
30
0
40
3
1
01
50
0
72
0
11
22
21
252.8
31
0
0
TEXT
8
TEXT
10
29
20
252.8
30
0
40
2.6
1
МЕХАНИЧЕСКАЯ ОЧИСТКА
50
0
72
0
11
29
21
252.8
31
0
0
TEXT
8
TEXT
10
22
20
247
30
0
40
1.8
1
Расчёт ступени screen: расход 41,7 м3/ч
50
0
72
0
11
22
21
247
31
0
0
TEXT
8
TEXT
10
22
20
244
30
0
40
1.8
1
(11,6 л/с); объём ~ 350 м3 (8 часов
50
0
72
0
11
22
21
244
31
0
0
TEXT
8
TEXT
10
22
20
241
30
0
40
1.8
1
среднего притока). Нагрузка 1 200 кг
50
0
72
0
11
22
21
241
31
0
0
TEXT
8
TEXT
10
22
20
238
30
0
40
1.8
1
БПК5/сут -> объём биоблока ~ 2 182 м3.
50
0
72
0
11
22
21
238
31
0
0
TEXT
8
DIM
10
22
20
198
30
0
40
1.8
1
комплектация
50
0
72
0
11
22
21
198
31
0
0
POLYLINE
8
CONTOUR
66
1
70
1
10
0
20
0
30
0
0
VERTEX
8
CONTOUR
10
102
20
196
30
0
0
VERTEX
8
CONTOUR
10
174
20
196
30
0
0
VERTEX
8
CONTOUR
10
174
20
258
30
0
0
VERTEX
8
CONTOUR
10
102
20
258
30
0
0
SEQEND
8
CONTOUR
0
LINE
8
THIN
10
102
20
251
30
0
11
174
21
251
31
0
0
TEXT
8
TEXT
10
104
20
252.8
30
0
40
3
1
02
50
0
72
0
11
104
21
252.8
31
0
0
TEXT
8
TEXT
10
111
20
252.8
30
0
40
2.6
1
УСРЕДНИТЕЛЬ
50
0
72
0
11
111
21
252.8
31
0
0
TEXT
8
TEXT
10
104
20
247
30
0
40
1.8
1
Расчёт ступени avg: расход 41,7 м3/ч (11,6
50
0
72
0
11
104
21
247
31
0
0
TEXT
8
TEXT
10
104
20
244
30
0
40
1.8
1
л/с); объём ~ 350 м3 (8 часов среднего
50
0
72
0
11
104
21
244
31
0
0
TEXT
8
TEXT
10
104
20
241
30
0
40
1.8
1
притока). Нагрузка 1 200 кг БПК5/сут ->
50
0
72
0
11
104
21
241
31
0
0
TEXT
8
TEXT
10
104
20
238
30
0
40
1.8
1
объём биоблока ~ 2 182 м3.
50
0
72
0
11
104
21
238
31
0
0
TEXT
8
DIM
10
104
20
198
30
0
40
2.4
1
РЕЗ-500
50
0
72
0
11
104
21
198
31
0
0
POLYLINE
8
CONTOUR
66
1
70
1
10
0
20
0
30
0
0
VERTEX
8
CONTOUR
10
184
20
196
30
0
0
VERTEX
8
CONTOUR
10
256
20
196
30
0
0
VERTEX
8
CONTOUR
10
256
20
258
30
0
0
VERTEX
8
CONTOUR
10
184
20
258
30
0
0
SEQEND
8
CONTOUR
0
LINE
8
THIN
10
184
20
251
30
0
11
256
21
251
31
0
0
TEXT
8
TEXT
10
186
20
252.8
30
0
40
3
1
03
50
0
72
0
11
186
21
252.8
31
0
0
TEXT
8
TEXT
10
193
20
252.8
30
0
40
2.6
1
ЖИРОУЛОВИТЕЛЬ
50
0
72
0
11
193
21
252.8
31
0
0
TEXT
8
TEXT
10
186
20
247
30
0
40
1.8
1
Расчёт ступени grease: расход 41,7 м3/ч
50
0
72
0
11
186
21
247
31
0
0
TEXT
8
TEXT
10
186
20
244
30
0
40
1.8
1
(11,6 л/с); объём ~ 350 м3 (8 часов
50
0
72
0
11
186
21
244
31
0
0
TEXT
8
TEXT
10
186
20
241
30
0
40
1.8
1
среднего притока). Нагрузка 1 200 кг
50
0
72
0
11
186
21
241
31
0
0
TEXT
8
TEXT
10
186
20
238
30
0
40
1.8
1
БПК5/сут -> объём биоблока ~ 2 182 м3.
50
0
72
0
11
186
21
238
31
0
0
TEXT
8
DIM
10
186
20
198
30
0
40
2.4
1
ЖИР-50
50
0
72
0
11
186
21
198
31
0
0
POLYLINE
8
CONTOUR
66
1
70
1
10
0
20
0
30
0
0
VERTEX
8
CONTOUR
10
266
20
196
30
0
0
VERTEX
8
CONTOUR
10
338
20
196
30
0
0
VERTEX
8
CONTOUR
10
338
20
258
30
0
0
VERTEX
8
CONTOUR
10
266
20
258
30
0
0
SEQEND
8
CONTOUR
0
LINE
8
THIN
10
266
20
251
30
0
11
338
21
251
31
0
0
TEXT
8
TEXT
10
268
20
252.8
30
0
40
3
1
04
50
0
72
0
11
268
21
252.8
31
0
0
TEXT
8
TEXT
10
275
20
252.8
30
0
40
2.6
1
ФЛОТАЦИЯ (DAF)
50
0
72
0
11
275
21
252.8
31
0
0
TEXT
8
TEXT
10
268
20
247
30
0
40
1.8
1
Расчёт ступени daf: расход 41,7 м3/ч (11,6
50
0
72
0
11
268
21
247
31
0
0
TEXT
8
TEXT
10
268
20
244
30
0
40
1.8
1
л/с); объём ~ 350 м3 (8 часов среднего
50
0
72
0
11
268
21
244
31
0
0
TEXT
8
TEXT
10
268
20
241
30
0
40
1.8
1
притока). Нагрузка 1 200 кг БПК5/сут ->
50
0
72
0
11
268
21
241
31
0
0
TEXT
8
TEXT
10
268
20
238
30
0
40
1.8
1
объём биоблока ~ 2 182 м3.
50
0
72
0
11
268
21
238
31
0
0
TEXT
8
DIM
10
268
20
198
30
0
40
1.8
1
корпус SUVSANOAT
50
0
72
0
11
268
21
198
31
0
0
POLYLINE
8
CONTOUR
66
1
70
1
10
0
20
0
30
0
0
VERTEX
8
CONTOUR
10
348
20
196
30
0
0
VERTEX
8
CONTOUR
10
420
20
196
30
0
0
VERTEX
8
CONTOUR
10
420
20
258
30
0
0
VERTEX
8
CONTOUR
10
348
20
258
30
0
0
SEQEND
8
CONTOUR
0
LINE
8
THIN
10
348
20
251
30
0
11
420
21
251
31
0
0
TEXT
8
TEXT
10
350
20
252.8
30
0
40
3
1
05
50
0
72
0
11
350
21
252.8
31
0
0
TEXT
8
TEXT
10
357
20
252.8
30
0
40
2.6
1
БИОЛОГИЧЕСКАЯ ОЧИСТКА
50
0
72
0
11
357
21
252.8
31
0
0
TEXT
8
TEXT
10
350
20
247
30
0
40
1.8
1
Расчёт ступени bio: расход 41,7 м3/ч (11,6
50
0
72
0
11
350
21
247
31
0
0
TEXT
8
TEXT
10
350
20
244
30
0
40
1.8
1
л/с); объём ~ 350 м3 (8 часов среднего
50
0
72
0
11
350
21
244
31
0
0
TEXT
8
TEXT
10
350
20
241
30
0
40
1.8
1
притока). Нагрузка 1 200 кг БПК5/сут ->
50
0
72
0
11
350
21
241
31
0
0
TEXT
8
TEXT
10
350
20
238
30
0
40
1.8
1
объём биоблока ~ 2 182 м3.
50
0
72
0
11
350
21
238
31
0
0
TEXT
8
DIM
10
350
20
198
30
0
40
2.4
1
8x БИО-500
50
0
72
0
11
350
21
198
31
0
0
POLYLINE
8
CONTOUR
66
1
70
1
10
0
20
0
30
0
0
VERTEX
8
CONTOUR
10
348
20
108
30
0
0
VERTEX
8
CONTOUR
10
420
20
108
30
0
0
VERTEX
8
CONTOUR
10
420
20
170
30
0
0
VERTEX
8
CONTOUR
10
348
20
170
30
0
0
SEQEND
8
CONTOUR
0
LINE
8
THIN
10
348
20
163
30
0
11
420
21
163
31
0
0
TEXT
8
TEXT
10
350
20
164.8
30
0
40
3
1
06
50
0
72
0
11
350
21
164.8
31
0
0
TEXT
8
TEXT
10
357
20
164.8
30
0
40
2.6
1
ВТОРИЧНОЕ ОТСТАИВАНИЕ
50
0
72
0
11
357
21
164.8
31
0
0
TEXT
8
TEXT
10
350
20
159
30
0
40
1.8
1
Расчёт ступени clarify: расход 41,7 м3/ч
50
0
72
0
11
350
21
159
31
0
0
TEXT
8
TEXT
10
350
20
156
30
0
40
1.8
1
(11,6 л/с); объём ~ 350 м3 (8 часов
50
0
72
0
11
350
21
156
31
0
0
TEXT
8
TEXT
10
350
20
153
30
0
40
1.8
1
среднего притока). Нагрузка 1 200 кг
50
0
72
0
11
350
21
153
31
0
0
TEXT
8
TEXT
10
350
20
150
30
0
40
1.8
1
БПК5/сут -> объём биоблока ~ 2 182 м3.
50
0
72
0
11
350
21
150
31
0
0
TEXT
8
DIM
10
350
20
110
30
0
40
1.8
1
корпус SUVSANOAT
50
0
72
0
11
350
21
110
31
0
0
POLYLINE
8
CONTOUR
66
1
70
1
10
0
20
0
30
0
0
VERTEX
8
CONTOUR
10
266
20
108
30
0
0
VERTEX
8
CONTOUR
10
338
20
108
30
0
0
VERTEX
8
CONTOUR
10
338
20
170
30
0
0
VERTEX
8
CONTOUR
10
266
20
170
30
0
0
SEQEND
8
CONTOUR
0
LINE
8
THIN
10
266
20
163
30
0
11
338
21
163
31
0
0
TEXT
8
TEXT
10
268
20
164.8
30
0
40
3
1
07
50
0
72
0
11
268
21
164.8
31
0
0
TEXT
8
TEXT
10
275
20
164.8
30
0
40
2.6
1
ДООЧИСТКА
50
0
72
0
11
275
21
164.8
31
0
0
TEXT
8
TEXT
10
268
20
159
30
0
40
1.8
1
Расчёт ступени post: расход 41,7 м3/ч
50
0
72
0
11
268
21
159
31
0
0
TEXT
8
TEXT
10
268
20
156
30
0
40
1.8
1
(11,6 л/с); объём ~ 350 м3 (8 часов
50
0
72
0
11
268
21
156
31
0
0
TEXT
8
TEXT
10
268
20
153
30
0
40
1.8
1
среднего притока). Нагрузка 1 200 кг
50
0
72
0
11
268
21
153
31
0
0
TEXT
8
TEXT
10
268
20
150
30
0
40
1.8
1
БПК5/сут -> объём биоблока ~ 2 182 м3.
50
0
72
0
11
268
21
150
31
0
0
TEXT
8
DIM
10
268
20
110
30
0
40
1.8
1
корпус SUVSANOAT
50
0
72
0
11
268
21
110
31
0
0
POLYLINE
8
CONTOUR
66
1
70
1
10
0
20
0
30
0
0
VERTEX
8
CONTOUR
10
184
20
108
30
0
0
VERTEX
8
CONTOUR
10
256
20
108
30
0
0
VERTEX
8
CONTOUR
10
256
20
170
30
0
0
VERTEX
8
CONTOUR
10
184
20
170
30
0
0
SEQEND
8
CONTOUR
0
LINE
8
THIN
10
184
20
163
30
0
11
256
21
163
31
0
0
TEXT
8
TEXT
10
186
20
164.8
30
0
40
3
1
08
50
0
72
0
11
186
21
164.8
31
0
0
TEXT
8
TEXT
10
193
20
164.8
30
0
40
2.6
1
ОБЕЗЗАРАЖИВАНИЕ
50
0
72
0
11
193
21
164.8
31
0
0
TEXT
8
TEXT
10
186
20
159
30
0
40
1.8
1
Расчёт ступени disinfect: расход 41,7 м3/ч
50
0
72
0
11
186
21
159
31
0
0
TEXT
8
TEXT
10
186
20
156
30
0
40
1.8
1
(11,6 л/с); объём ~ 350 м3 (8 часов
50
0
72
0
11
186
21
156
31
0
0
TEXT
8
TEXT
10
186
20
153
30
0
40
1.8
1
среднего притока). Нагрузка 1 200 кг
50
0
72
0
11
186
21
153
31
0
0
TEXT
8
TEXT
10
186
20
150
30
0
40
1.8
1
БПК5/сут -> объём биоблока ~ 2 182 м3.
50
0
72
0
11
186
21
150
31
0
0
TEXT
8
DIM
10
186
20
110
30
0
40
2.4
1
ЭЛХ-500
50
0
72
0
11
186
21
110
31
0
0
POLYLINE
8
CONTOUR
66
1
70
1
10
0
20
0
30
0
0
VERTEX
8
CONTOUR
10
102
20
108
30
0
0
VERTEX
8
CONTOUR
10
174
20
108
30
0
0
VERTEX
8
CONTOUR
10
174
20
170
30
0
0
VERTEX
8
CONTOUR
10
102
20
170
30
0
0
SEQEND
8
CONTOUR
0
LINE
8
THIN
10
102
20
163
30
0
11
174
21
163
31
0
0
TEXT
8
TEXT
10
104
20
164.8
30
0
40
3
1
09
50
0
72
0
11
104
21
164.8
31
0
0
TEXT
8
TEXT
10
111
20
164.8
30
0
40
2.6
1
ОБРАБОТКА ОСАДКА
50
0
72
0
11
111
21
164.8
31
0
0
TEXT
8
TEXT
10
104
20
159
30
0
40
1.8
1
Расчёт ступени sludge: расход 41,7 м3/ч
50
0
72
0
11
104
21
159
31
0
0
TEXT
8
TEXT
10
104
20
156
30
0
40
1.8
1
(11,6 л/с); объём ~ 350 м3 (8 часов
50
0
72
0
11
104
21
156
31
0
0
TEXT
8
TEXT
10
104
20
153
30
0
40
1.8
1
среднего притока). Нагрузка 1 200 кг
50
0
72
0
11
104
21
153
31
0
0
TEXT
8
TEXT
10
104
20
150
30
0
40
1.8
1
БПК5/сут -> объём биоблока ~ 2 182 м3.
50
0
72
0
11
104
21
150
31
0
0
TEXT
8
DIM
10
104
20
110
30
0
40
2.4
1
РЕЗ-30
50
0
72
0
11
104
21
110
31
0
0
LINE
8
FLOW
10
92
20
227
30
0
11
102
21
227
31
0
0
POLYLINE
8
FLOW
66
1
70
1
10
0
20
0
30
0
0
VERTEX
8
FLOW
10
102
20
227
30
0
0
VERTEX
8
FLOW
10
99.24
20
228.17
30
0
0
VERTEX
8
FLOW
10
99.24
20
225.83
30
0
0
SEQEND
8
FLOW
0
LINE
8
FLOW
10
174
20
227
30
0
11
184
21
227
31
0
0
POLYLINE
8
FLOW
66
1
70
1
10
0
20
0
30
0
0
VERTEX
8
FLOW
10
184
20
227
30
0
0
VERTEX
8
FLOW
10
181.24
20
228.17
30
0
0
VERTEX
8
FLOW
10
181.24
20
225.83
30
0
0
SEQEND
8
FLOW
0
LINE
8
FLOW
10
256
20
227
30
0
11
266
21
227
31
0
0
POLYLINE
8
FLOW
66
1
70
1
10
0
20
0
30
0
0
VERTEX
8
FLOW
10
266
20
227
30
0
0
VERTEX
8
FLOW
10
263.24
20
228.17
30
0
0
VERTEX
8
FLOW
10
263.24
20
225.83
30
0
0
SEQEND
8
FLOW
0
LINE
8
FLOW
10
338
20
227
30
0
11
348
21
227
31
0
0
POLYLINE
8
FLOW
66
1
70
1
10
0
20
0
30
0
0
VERTEX
8
FLOW
10
348
20
227
30
0
0
VERTEX
8
FLOW
10
345.24
20
228.17
30
0
0
VERTEX
8
FLOW
10
345.24
20
225.83
30
0
0
SEQEND
8
FLOW
0
LINE
8
FLOW
10
384
20
196
30
0
11
384
21
170
31
0
0
POLYLINE
8
FLOW
66
1
70
1
10
0
20
0
30
0
0
VERTEX
8
FLOW
10
384
20
170
30
0
0
VERTEX
8
FLOW
10
385.17
20
172.76
30
0
0
VERTEX
8
FLOW
10
382.83
20
172.76
30
0
0
SEQEND
8
FLOW
0
LINE
8
FLOW
10
348
20
139
30
0
11
338
21
139
31
0
0
POLYLINE
8
FLOW
66
1
70
1
10
0
20
0
30
0
0
VERTEX
8
FLOW
10
338
20
139
30
0
0
VERTEX
8
FLOW
10
340.76
20
137.83
30
0
0
VERTEX
8
FLOW
10
340.76
20
140.17
30
0
0
SEQEND
8
FLOW
0
LINE
8
FLOW
10
266
20
139
30
0
11
256
21
139
31
0
0
POLYLINE
8
FLOW
66
1
70
1
10
0
20
0
30
0
0
VERTEX
8
FLOW
10
256
20
139
30
0
0
VERTEX
8
FLOW
10
258.76
20
137.83
30
0
0
VERTEX
8
FLOW
10
258.76
20
140.17
30
0
0
SEQEND
8
FLOW
0
LINE
8
FLOW
10
184
20
139
30
0
11
174
21
139
31
0
0
POLYLINE
8
FLOW
66
1
70
1
10
0
20
0
30
0
0
VERTEX
8
FLOW
10
174
20
139
30
0
0
VERTEX
8
FLOW
10
176.76
20
137.83
30
0
0
VERTEX
8
FLOW
10
176.76
20
140.17
30
0
0
SEQEND
8
FLOW
0
LINE
8
FLOW
10
6
20
227
30
0
11
20
21
227
31
0
0
POLYLINE
8
FLOW
66
1
70
1
10
0
20
0
30
0
0
VERTEX
8
FLOW
10
20
20
227
30
0
0
VERTEX
8
FLOW
10
17.24
20
228.17
30
0
0
VERTEX
8
FLOW
10
17.24
20
225.83
30
0
0
SEQEND
8
FLOW
0
TEXT
8
FLOW
10
6
20
229
30
0
40
2
1
СТОК
50
0
72
0
11
6
21
229
31
0
0
LINE
8
FLOW
10
102
20
139
30
0
11
88
21
139
31
0
0
POLYLINE
8
FLOW
66
1
70
1
10
0
20
0
30
0
0
VERTEX
8
FLOW
10
88
20
139
30
0
0
VERTEX
8
FLOW
10
90.76
20
137.83
30
0
0
VERTEX
8
FLOW
10
90.76
20
140.17
30
0
0
SEQEND
8
FLOW
0
TEXT
8
FLOW
10
88
20
141
30
0
40
2
1
СБРОС
50
0
72
0
11
88
21
141
31
0
0
POLYLINE
8
THIN
66
1
70
1
10
0
20
0
30
0
0
VERTEX
8
THIN
10
25
20
8
30
0
0
VERTEX
8
THIN
10
220
20
8
30
0
0
VERTEX
8
THIN
10
220
20
60
30
0
0
VERTEX
8
THIN
10
25
20
60
30
0
0
SEQEND
8
THIN
0
TEXT
8
TEXT
10
27
20
56
30
0
40
2.5
1
ИСХОДНЫЙ СОСТАВ И ЦЕЛЬ ОЧИСТКИ, мг/л
50
0
72
0
11
27
21
56
31
0
0
LINE
8
THIN
10
25
20
54
30
0
11
220
21
54
31
0
0
TEXT
8
TEXT
10
27
20
50
30
0
40
1.9
1
ХПК: 3500 -> 60
50
0
72
0
11
27
21
50
31
0
0
TEXT
8
TEXT
10
27
20
46.4
30
0
40
1.9
1
БПК5: 2000 -> 15
50
0
72
0
11
27
21
46.4
31
0
0
TEXT
8
TEXT
10
27
20
42.8
30
0
40
1.9
1
Взвешенные вещества: 900 -> 15
50
0
72
0
11
27
21
42.8
31
0
0
TEXT
8
TEXT
10
27
20
39.2
30
0
40
1.9
1
Жиры: 500 -> 5
50
0
72
0
11
27
21
39.2
31
0
0
TEXT
8
TEXT
10
27
20
35.6
30
0
40
1.9
1
Азот общий: 80 -> 15
50
0
72
0
11
27
21
35.6
31
0
0
TEXT
8
TEXT
10
27
20
32
30
0
40
1.9
1
Фосфор общий: 30 -> 2
50
0
72
0
11
27
21
32
31
0
0
TEXT
8
TEXT
10
125
20
18
30
0
40
1.9
1
pH: 8,2 -> 6,5-8,5
50
0
72
0
11
125
21
18
31
0
0
TEXT
8
TEXT
10
125
20
14
30
0
40
1.7
1
Методики: КМК 2.04.03-97, DWA-A 131, EN 1825, EN 858
50
0
72
0
11
125
21
14
31
0
0
TEXT
8
TEXT
10
125
20
10.5
30
0
40
1.7
1
Справочник: Справочник проектировщика "Канализация населённы
50
0
72
0
11
125
21
10.5
31
0
0
POLYLINE
8
CONTOUR
66
1
70
1
10
0
20
0
30
0
0
VERTEX
8
CONTOUR
10
230
20
5
30
0
0
VERTEX
8
CONTOUR
10
415
20
5
30
0
0
VERTEX
8
CONTOUR
10
415
20
60
30
0
0
VERTEX
8
CONTOUR
10
230
20
60
30
0
0
SEQEND
8
CONTOUR
0
LINE
8
CONTOUR
10
230
20
45
30
0
11
415
21
45
31
0
0
LINE
8
CONTOUR
10
230
20
20
30
0
11
415
21
20
31
0
0
LINE
8
CONTOUR
10
295
20
5
30
0
11
295
21
60
31
0
0
LINE
8
THIN
10
365
20
20
30
0
11
365
21
60
31
0
0
TEXT
8
TEXT
10
233
20
51
30
0
40
2.5
1
SUVSANOAT
50
0
72
0
11
233
21
51
31
0
0
TEXT
8
TEXT
10
233
20
47
30
0
40
1.8
1
Ташкент, Узбекистан
50
0
72
0
11
233
21
47
31
0
0
TEXT
8
TEXT
10
233
20
29
30
0
40
1.8
1
Разработал: онлайн-расчёт
50
0
72
0
11
233
21
29
31
0
0
TEXT
8
TEXT
10
233
20
23
30
0
40
1.8
1
Дата: 03.09.2026
50
0
72
0
11
233
21
23
31
0
0
TEXT
8
TEXT
10
233
20
13
30
0
40
1.8
1
Предварительное решение
50
0
72
0
11
233
21
13
31
0
0
TEXT
8
TEXT
10
233
20
8.5
30
0
40
1.8
1
Не является рабочим чертежом
50
0
72
0
11
233
21
8.5
31
0
0
TEXT
8
TEXT
10
330
20
53
30
0
40
3.5
1
ТХ
50
0
72
1
11
330
21
53
31
0
0
TEXT
8
TEXT
10
330
20
39
30
0
40
2.5
1
Схема очистки сточных вод.
50
0
72
1
11
330
21
39
31
0
0
TEXT
8
TEXT
10
330
20
34
30
0
40
2.5
1
Молокозавод / молочный цех
50
0
72
1
11
330
21
34
31
0
0
TEXT
8
TEXT
10
298
20
13
30
0
40
2.2
1
Стадия: П (предварительная)
50
0
72
0
11
298
21
13
31
0
0
TEXT
8
TEXT
10
368
20
13
30
0
40
2.2
1
Лист 1
50
0
72
0
11
368
21
13
31
0
0
TEXT
8
TEXT
10
368
20
8.5
30
0
40
2.2
1
Масштаб: б/м
50
0
72
0
11
368
21
8.5
31
0
0
ENDSEC
0
EOF
